<svg width="25" height="29" viewBox="0 0 25 29" fill="none" xmlns="http://www.w3.org/2000/svg">
<path fill-rule="evenodd" clip-rule="evenodd" d="M10.3355 24.9703C11.0045 25.7155 11.8635 26.125 12.7548 26.125H12.756C13.6512 26.125 14.514 25.7155 15.1844 24.969C15.5435 24.5724 16.1557 24.5401 16.5523 24.8979C16.9501 25.2557 16.9824 25.8693 16.6246 26.2658C15.5809 27.4244 14.2079 28.0625 12.756 28.0625H12.7535C11.3055 28.0612 9.93504 27.4231 8.89525 26.2645C8.53746 25.868 8.56975 25.2544 8.96758 24.8979C9.36542 24.5388 9.97767 24.5711 10.3355 24.9703ZM12.8191 0.291668C18.5605 0.291668 22.4175 4.76342 22.4175 8.93938C22.4175 11.0874 22.9638 11.998 23.5438 12.9642C24.1173 13.9175 24.767 14.9999 24.767 17.0459C24.3162 22.2733 18.8589 22.6995 12.8191 22.6995C6.77924 22.6995 1.32066 22.2733 0.875017 17.1285C0.871159 14.9999 1.52087 13.9175 2.09437 12.9642L2.29683 12.6234C2.79532 11.7667 3.2207 10.8347 3.2207 8.93938C3.2207 4.76342 7.07762 0.291668 12.8191 0.291668ZM12.8191 2.22917C8.3047 2.22917 5.1582 5.76575 5.1582 8.93938C5.1582 11.6248 4.41291 12.866 3.75416 13.9614C3.22587 14.841 2.80866 15.5359 2.80866 17.0459C3.02437 19.482 4.63249 20.762 12.8191 20.762C20.9605 20.762 22.619 19.4251 22.8334 16.9619C22.8295 15.5359 22.4123 14.841 21.884 13.9614C21.2252 12.866 20.48 11.6248 20.48 8.93938C20.48 5.76575 17.3335 2.22917 12.8191 2.22917Z" fill="black"/>
</svg>
